<svg version="1.1" xmlns="http://www.w3.org/2000/svg" width="320px" height="320px" transform="rotate(0) scale(1, 1)">
<path d="M0 0 C10.74975683 0.75547339 20.60924626 5.28368582 28.85546875 12.1875 C28.85546875 12.8475 28.85546875 13.5075 28.85546875 14.1875 C29.51546875 14.1875 30.17546875 14.1875 30.85546875 14.1875 C32.92327993 18.56639427 32.92327993 18.56639427 32.63330078 21.22241211 C31.63992056 23.73205347 30.73567151 24.18018737 28.34765625 25.37890625 C27.61530762 25.76079102 26.88295898 26.14267578 26.12841797 26.53613281 C25.33709473 26.93670898 24.54577148 27.33728516 23.73046875 27.75 C14.79398715 32.47929654 6.8296469 37.9995787 -1.14453125 44.1875 C-5.82350986 47.8114148 -10.38805249 50.98968943 -15.61328125 53.78125 C-18.59151323 55.43582332 -21.45087674 57.2442957 -24.33203125 59.0625 C-31.06268989 63.24342678 -38.00979842 66.74571232 -45.14453125 70.1875 C-46.47916412 70.85156123 -47.81315676 71.51692996 -49.14453125 72.1875 C-49.14453125 72.8475 -49.14453125 73.5075 -49.14453125 74.1875 C-47.16453125 75.1775 -47.16453125 75.1775 -45.14453125 76.1875 C-45.14453125 77.1775 -45.14453125 78.1675 -45.14453125 79.1875 C-44.56703125 79.414375 -43.98953125 79.64125 -43.39453125 79.875 C-40.5547828 81.53151993 -39.12953158 83.58218706 -37.14453125 86.1875 C-36.40203125 86.909375 -35.65953125 87.63125 -34.89453125 88.375 C-33.14453125 90.1875 -33.14453125 90.1875 -33.14453125 92.1875 C-32.58636719 92.41695313 -32.02820313 92.64640625 -31.453125 92.8828125 C-28.51857517 94.54125521 -26.54312772 96.63641522 -24.20703125 99.0625 C-21.66294473 101.69702545 -19.21885004 104.12957051 -16.328125 106.3828125 C-15.60753906 106.97835937 -14.88695312 107.57390625 -14.14453125 108.1875 C-14.14453125 108.8475 -14.14453125 109.5075 -14.14453125 110.1875 C-13.62890625 110.414375 -13.11328125 110.64125 -12.58203125 110.875 C-9.2490612 112.66967618 -5.99749454 114.68715015 -3.14453125 117.1875 C-3.14453125 117.8475 -3.14453125 118.5075 -3.14453125 119.1875 C-1.16453125 119.6825 -1.16453125 119.6825 0.85546875 120.1875 C0.85546875 120.8475 0.85546875 121.5075 0.85546875 122.1875 C1.57605469 122.45175781 2.29664063 122.71601563 3.0390625 122.98828125 C5.91120284 124.21123144 8.31384856 125.65855879 10.91796875 127.375 C23.4535442 135.44425784 36.35693871 141.90069186 49.85546875 148.1875 C51.28931702 148.86013478 52.72293222 149.53326678 54.15625 150.20703125 C60.63777777 153.24865559 67.13961289 156.23940035 73.68359375 159.14453125 C75.85546875 160.1875 75.85546875 160.1875 78.85546875 162.1875 C78.85546875 163.5075 78.85546875 164.8275 78.85546875 166.1875 C58.91022133 173.51114554 29.87326674 179.88307118 9.55078125 171.35546875 C7.85546875 170.1875 7.85546875 170.1875 6.85546875 167.1875 C6.19546875 167.1875 5.53546875 167.1875 4.85546875 167.1875 C3.23046875 165.8125 3.23046875 165.8125 1.85546875 164.1875 C1.85546875 163.5275 1.85546875 162.8675 1.85546875 162.1875 C1.19546875 162.1875 0.53546875 162.1875 -0.14453125 162.1875 C-0.14453125 161.5275 -0.14453125 160.8675 -0.14453125 160.1875 C-0.80453125 160.1875 -1.46453125 160.1875 -2.14453125 160.1875 C-3.14453125 158.52083333 -4.14453125 156.85416667 -5.14453125 155.1875 C-5.88703125 154.445 -6.62953125 153.7025 -7.39453125 152.9375 C-11.03326078 149.29877047 -14.02696704 145.27258414 -17.14453125 141.1875 C-17.70140625 140.48625 -18.25828125 139.785 -18.83203125 139.0625 C-22.40406806 134.56437958 -25.78720033 129.95319946 -29.08203125 125.25 C-29.48405762 124.6818457 -29.88608398 124.11369141 -30.30029297 123.52832031 C-33.14453125 119.42479151 -33.14453125 119.42479151 -33.14453125 117.1875 C-33.80453125 117.1875 -34.46453125 117.1875 -35.14453125 117.1875 C-37.60674119 113.90455341 -39.25794991 111.17711601 -40.14453125 107.1875 C-40.80453125 106.8575 -41.46453125 106.5275 -42.14453125 106.1875 C-43.71862887 104.06463441 -45.22680737 101.93642863 -46.70703125 99.75 C-47.11888672 99.15123047 -47.53074219 98.55246094 -47.95507812 97.93554688 C-50.98381696 93.50892857 -50.98381696 93.50892857 -52.14453125 91.1875 C-52.14009003 92.2360466 -52.1356488 93.2845932 -52.131073 94.36491394 C-52.09035546 104.29424826 -52.06046506 114.22356542 -52.04090691 124.15296459 C-52.03051355 129.25655308 -52.0164365 134.36007364 -51.99365234 139.46362305 C-51.9717642 144.39790315 -51.95992926 149.33211831 -51.95477676 154.26644325 C-51.95110947 156.13969252 -51.94394903 158.01293863 -51.93307114 159.8861599 C-51.83031732 178.33093646 -53.06911074 194.62204414 -64.14453125 210.1875 C-64.80453125 210.1875 -65.46453125 210.1875 -66.14453125 210.1875 C-66.14453125 210.8475 -66.14453125 211.5075 -66.14453125 212.1875 C-66.80453125 212.1875 -67.46453125 212.1875 -68.14453125 212.1875 C-68.14453125 212.8475 -68.14453125 213.5075 -68.14453125 214.1875 C-71.77876334 216.51340854 -74.91541456 216.35015833 -79.14453125 216.1875 C-79.41265625 215.548125 -79.68078125 214.90875 -79.95703125 214.25 C-81.03120877 211.85618314 -81.03120877 211.85618314 -84.14453125 211.1875 C-85.96875 209.19140625 -85.96875 209.19140625 -87.83203125 206.75 C-88.45464844 205.94691406 -89.07726562 205.14382813 -89.71875 204.31640625 C-91.14453125 202.1875 -91.14453125 202.1875 -91.14453125 200.1875 C-91.80453125 200.1875 -92.46453125 200.1875 -93.14453125 200.1875 C-94.6953125 198.39453125 -94.6953125 198.39453125 -96.45703125 196 C-99.65789636 191.76957828 -103.06365785 188.0994136 -106.97265625 184.5078125 C-113.00493074 178.79431674 -113.00493074 178.79431674 -113.14453125 174.1875 C-106.65917543 173.68725217 -101.57504556 175.49089187 -95.51953125 177.6875 C-93.67568778 178.35077147 -91.82939175 179.00727273 -89.98046875 179.65625 C-89.1714209 179.94951172 -88.36237305 180.24277344 -87.52880859 180.54492188 C-84.97075743 181.23433317 -82.78168742 181.30233728 -80.14453125 181.1875 C-71.88567366 168.24862311 -73.63159342 149.03029966 -73.14453125 134.1875 C-73.09941406 132.91938477 -73.05429688 131.65126953 -73.0078125 130.34472656 C-72.32094279 110.8624183 -72.02573682 91.3796757 -71.96829224 71.88552856 C-71.96087807 69.57421613 -71.95028002 67.26291137 -71.93624878 64.95162964 C-71.87763798 54.34500558 -71.83679419 43.79031836 -73.03125 33.23828125 C-73.14784721 32.19198799 -73.14784721 32.19198799 -73.26679993 31.1245575 C-73.75895106 27.23207983 -73.75895106 27.23207983 -76.14453125 24.1875 C-78.26811803 24.07990693 -78.26811803 24.07990693 -80.6875 24.39453125 C-81.59693359 24.48669922 -82.50636719 24.57886719 -83.44335938 24.67382812 C-84.39662109 24.78146484 -85.34988281 24.88910156 -86.33203125 25 C-87.26595703 25.09603516 -88.19988281 25.19207031 -89.16210938 25.29101562 C-94.17471441 25.81661601 -99.1555841 26.47025951 -104.14453125 27.1875 C-110.74889863 27.60682491 -116.51621071 26.93047871 -121.9375 22.83203125 C-123.14453125 21.1875 -123.14453125 21.1875 -122.83203125 19 C-122.49171875 18.1028125 -122.49171875 18.1028125 -122.14453125 17.1875 C-121.44972656 17.02894531 -120.75492187 16.87039062 -120.0390625 16.70703125 C-117.81419903 16.19663798 -115.5903638 15.68175535 -113.3671875 15.1640625 C-110.31620269 14.45405254 -107.26070044 13.766967 -104.203125 13.0859375 C-94.80883337 10.95830134 -85.70280928 8.63115293 -76.73730469 5.06713867 C-68.97437178 2.07693553 -63.21187077 3.07025403 -55.67578125 5.96875 C-52.31871779 7.58511389 -50.4768089 9.31102423 -48.14453125 12.1875 C-47.64953125 12.6825 -47.64953125 12.6825 -47.14453125 13.1875 C-47.59676267 19.6317977 -48.7884893 25.92064712 -50.04003906 32.25024414 C-51.58041062 40.12661237 -52.29190123 47.67055134 -52.20703125 55.6875 C-52.20251953 56.50992188 -52.19800781 57.33234375 -52.19335938 58.1796875 C-52.18171614 60.18232396 -52.16378681 62.18492227 -52.14453125 64.1875 C-48.75812018 60.82264488 -48.75812018 60.82264488 -45.45703125 57.375 C-44.14453125 56.1875 -44.14453125 56.1875 -42.14453125 56.1875 C-42.14453125 55.5275 -42.14453125 54.8675 -42.14453125 54.1875 C-40.75390625 52.85546875 -40.75390625 52.85546875 -38.89453125 51.375 C-35.87721716 48.87874819 -33.53847586 46.29962799 -31.14453125 43.1875 C-28.51953125 40.375 -28.51953125 40.375 -26.14453125 38.1875 C-25.48453125 38.1875 -24.82453125 38.1875 -24.14453125 38.1875 C-23.89832031 37.63320312 -23.65210938 37.07890625 -23.3984375 36.5078125 C-21.90379962 33.742034 -20.07815735 31.48973137 -18.08203125 29.0625 C-15.34004378 25.80198977 -15.34004378 25.80198977 -13.14453125 22.1875 C-12.48453125 22.1875 -11.82453125 22.1875 -11.14453125 22.1875 C-7.75296556 13.8737437 -7.75296556 13.8737437 -5.08203125 5.3125 C-3.58224169 0.31320146 -3.58224169 0.31320146 0 0 Z " fill="#333331" transform="translate(221.14453125,81.8125)"/>
<path d="M0 0 C3.87180009 2.43113029 7.44714755 5.12701438 11 8 C11.5878125 8.44859375 12.175625 8.8971875 12.78125 9.359375 C16.01916197 12.10783516 16.78233381 14.92728742 17.4453125 18.9375 C16.73114429 22.24522646 14.44769705 23.74811871 12 26 C5.83519749 32.34427274 0.29928575 38.34912244 -3.87890625 46.234375 C-4.24886719 46.81703125 -4.61882812 47.3996875 -5 48 C-5.66 48 -6.32 48 -7 48 C-7.99 50.97 -7.99 50.97 -9 54 C-9.66 54 -10.32 54 -11 54 C-11.2475 54.721875 -11.495 55.44375 -11.75 56.1875 C-13.11254204 59.25321959 -14.85370342 61.43829118 -17 64 C-17.33 64.66 -17.66 65.32 -18 66 C-18.66 66 -19.32 66 -20 66 C-20.33064453 66.80630859 -20.33064453 66.80630859 -20.66796875 67.62890625 C-22.45051303 70.80193962 -24.8359151 73.30304514 -27.3125 75.9375 C-27.78623047 76.44990234 -28.25996094 76.96230469 -28.74804688 77.49023438 C-30.15437868 79.00430158 -31.57444623 80.50403627 -33 82 C-33.90105469 82.95003906 -34.80210938 83.90007812 -35.73046875 84.87890625 C-38 87 -38 87 -40 87 C-40 87.66 -40 88.32 -40 89 C-52.51136124 100.61403 -75.16999891 115.05881293 -92.75 115.375 C-96 115 -96 115 -98 114 C-97.875 111.75 -97.875 111.75 -97 109 C-95.61746358 108.02632343 -94.22662703 107.06230128 -92.79638672 106.16015625 C-89.44452712 103.99543257 -86.30611764 101.53053086 -83.125 99.125 C-81.7734375 98.10677083 -80.421875 97.08854167 -79.0703125 96.0703125 C-78.40531738 95.56781982 -77.74032227 95.06532715 -77.05517578 94.54760742 C-75.6350288 93.47819524 -74.21128511 92.41354867 -72.78466797 91.3527832 C-72.07197754 90.82257568 -71.35928711 90.29236816 -70.625 89.74609375 C-69.98046875 89.26841553 -69.3359375 88.7907373 -68.671875 88.29858398 C-66.60189304 86.69078112 -64.82126535 84.88197419 -63 83 C-62.030625 82.195625 -61.06125 81.39125 -60.0625 80.5625 C-54.76159623 76.1270499 -50.63247426 71.34081313 -46.55078125 65.79296875 C-46.03902344 65.20128906 -45.52726562 64.60960937 -45 64 C-44.34 64 -43.68 64 -43 64 C-42.731875 63.195625 -42.46375 62.39125 -42.1875 61.5625 C-41.795625 60.716875 -41.40375 59.87125 -41 59 C-40.01 58.67 -39.02 58.34 -38 58 C-37.30959426 56.34302621 -36.6469365 54.6744239 -36 53 C-34.68133728 51.321702 -33.34919532 49.65385233 -32 48 C-31.67 47.01 -31.34 46.02 -31 45 C-30.34 45 -29.68 45 -29 45 C-28.75378906 44.34128906 -28.50757812 43.68257812 -28.25390625 43.00390625 C-26.36374019 38.47575143 -24.07973148 34.15524856 -21.83398438 29.79492188 C-21.48529297 29.10849609 -21.13660156 28.42207031 -20.77734375 27.71484375 C-20.46015381 27.09730225 -20.14296387 26.47976074 -19.81616211 25.84350586 C-18.96375811 23.91813863 -18.45168046 22.05311878 -18 20 C-25.7568071 20.93304502 -33.15592048 22.46383763 -40.6875 24.5 C-66.09961794 31.34862057 -66.09961794 31.34862057 -75.8125 26.375 C-80.1944131 23.76819617 -83.11342318 21.18055954 -86 17 C-84 14 -84 14 -81.64550781 13.33325195 C-80.18902832 13.13155396 -80.18902832 13.13155396 -78.703125 12.92578125 C-77.62095703 12.76932129 -76.53878906 12.61286133 -75.42382812 12.45166016 C-74.29396484 12.3026123 -73.16410156 12.15356445 -72 12 C-70.93716797 11.85224121 -69.87433594 11.70448242 -68.77929688 11.55224609 C-66.58917865 11.24953338 -64.39848013 10.95099499 -62.20727539 10.65625 C-45.45900539 8.3854585 -28.53263585 5.94116104 -12.4375 0.625 C-7.78306831 -0.8590217 -4.7455495 -1.75761093 0 0 Z " fill="#333331" transform="translate(120,142)"/>
<path d="M0 0 C3.58776856 0.82999008 7.13810811 1.76966229 10.6875 2.75 C11.57808105 2.98976563 12.46866211 3.22953125 13.38623047 3.4765625 C20.83330884 5.62606327 28.00205426 8.84868217 33 15 C34.76069901 18.672856 35.24899238 21.56650274 35.1875 25.625 C35.18105469 26.56601562 35.17460937 27.50703125 35.16796875 28.4765625 C35 31 35 31 34 34 C33.34 34 32.68 34 32 34 C31.9175 34.61875 31.835 35.2375 31.75 35.875 C31 38 31 38 29.375 39.25 C24.23858834 40.87202473 19.75922599 40.34797855 15 38 C12.94519717 36.33712141 11.03617237 34.68663214 9.125 32.875 C8.5990625 32.38362549 8.073125 31.89225098 7.53125 31.38598633 C1.56853889 25.74913151 -3.52501893 19.87229236 -8 13 C-8.98020375 11.9805881 -9.97803008 10.97753644 -11 10 C-13.07300799 7.69665779 -13.93285093 6.4700435 -14.375 3.375 C-14.25125 2.59125 -14.1275 1.8075 -14 1 C-9.29791574 -2.13472284 -5.42415684 -0.9830927 0 0 Z " fill="#333331" transform="translate(140,23)"/>
<path d="M0 0 C0.99 0.495 0.99 0.495 2 1 C2 6.94 2 12.88 2 19 C3.65 17.35 5.3 15.7 7 14 C8 13 9 12 10 11 C10.66 11.33 11.32 11.66 12 12 C11.34 12.66 10.68 13.32 10 14 C10 14.99 10 15.98 10 17 C8.625 18.6875 8.625 18.6875 7 20 C6.34 20 5.68 20 5 20 C5.99 20.33 6.98 20.66 8 21 C8.66 20.67 9.32 20.34 10 20 C10 20.66 10 21.32 10 22 C11.65 21.67 13.3 21.34 15 21 C13.39966508 24.20066984 10.24030101 24.70013124 7.03125 26 C4.83439745 26.82709949 4.83439745 26.82709949 4 29 C1.83450189 26.83450189 1.64923117 25.8751666 1 23 C0.67 22.67 0.34 22.34 0 22 C-0.08700342 20.36527118 -0.10701063 18.72685945 -0.09765625 17.08984375 C-0.09443359 16.10048828 -0.09121094 15.11113281 -0.08789062 14.09179688 C-0.07951172 13.05087891 -0.07113281 12.00996094 -0.0625 10.9375 C-0.05798828 9.89271484 -0.05347656 8.84792969 -0.04882812 7.77148438 C-0.03699913 5.1809334 -0.02051689 2.59049441 0 0 Z " fill="#333331" transform="translate(167,127)"/>
<path d="M0 0 C-3.00440021 2.00293347 -4.70993945 2.49271626 -8.1875 3.125 C-9.53908203 3.37636719 -9.53908203 3.37636719 -10.91796875 3.6328125 C-11.60503906 3.75398438 -12.29210937 3.87515625 -13 4 C-13 5.65 -13 7.3 -13 9 C-9.7645883 10.61770585 -6.23792649 10.14279662 -2.6875 10.125 C-1.54764648 10.13080078 -1.54764648 10.13080078 -0.38476562 10.13671875 C3.57718125 10.12983439 7.11296955 9.79879105 11 9 C13.43666765 8.93298494 15.87501742 8.91471979 18.3125 8.9375 C19.56675781 8.94652344 20.82101563 8.95554687 22.11328125 8.96484375 C23.06589844 8.97644531 24.01851562 8.98804687 25 9 C25 9.33 25 9.66 25 10 C21.00097233 10.5079846 17.00064616 11.00493676 13 11.5 C11.87464844 11.64308594 10.74929687 11.78617188 9.58984375 11.93359375 C-6.73668383 13.93860591 -6.73668383 13.93860591 -12.3125 11.6875 C-12.94800781 11.44386719 -13.58351563 11.20023438 -14.23828125 10.94921875 C-16.2961462 9.84043564 -17.61117485 8.89221808 -19 7 C-18.6875 4.8125 -18.6875 4.8125 -18 3 C-15.93918639 2.49309416 -13.87626474 1.99475381 -11.8125 1.5 C-10.66394531 1.2215625 -9.51539062 0.943125 -8.33203125 0.65625 C-5.43181171 0.08504615 -2.93903615 -0.13283779 0 0 Z " fill="#333331" transform="translate(117,96)"/>
<path d="M0 0 C0.66 0.33 1.32 0.66 2 1 C1.34 2.65 0.68 4.3 0 6 C-1.32 6 -2.64 6 -4 6 C-4.99 6.33 -5.98 6.66 -7 7 C-8.42292198 10.35515584 -8.42292198 10.35515584 -9 14 C-8.01 15.485 -8.01 15.485 -7 17 C-13.75 17.125 -13.75 17.125 -16 16 C-15.875 13.75 -15.875 13.75 -15 11 C-12.5 9.125 -12.5 9.125 -10.8984375 8.1796875 C-8.50617801 6.69313942 -6.33937491 4.98936704 -4.125 3.25 C-3.34382813 2.63640625 -2.56265625 2.0228125 -1.7578125 1.390625 C-1.17773438 0.93171875 -0.59765625 0.4728125 0 0 Z " fill="#333331" transform="translate(38,240)"/>
<path d="M0 0 C4.56454251 0.54339792 7.9728176 1.79463821 12 4 C11.505 5.11375 11.505 5.11375 11 6.25 C9.77217129 9.13883312 9.77217129 9.13883312 10 13 C9.34 13 8.68 13 8 13 C6.55265194 11.07310891 5.189953 9.08206043 3.875 7.0625 C3.15054688 5.96035156 2.42609375 4.85820312 1.6796875 3.72265625 C0 1 0 1 0 0 Z " fill="#333331" transform="translate(188,200)"/>
<path d="M0 0 C-1.134375 0.433125 -2.26875 0.86625 -3.4375 1.3125 C-5.2009375 2.1478125 -5.2009375 2.1478125 -7 3 C-7.33 3.99 -7.66 4.98 -8 6 C-8.515625 5.649375 -9.03125 5.29875 -9.5625 4.9375 C-12.28535676 3.8902474 -13.95938587 4.12122738 -16.78515625 4.640625 C-21.48261662 5.40282315 -26.25781956 5.63401892 -31 6 C-26.43463519 2.95642346 -21.38796885 2.40626218 -16.0625 1.3125 C-14.96486328 1.07466797 -13.86722656 0.83683594 -12.73632812 0.59179688 C-11.67994141 0.37201172 -10.62355469 0.15222656 -9.53515625 -0.07421875 C-8.569729 -0.27619873 -7.60430176 -0.47817871 -6.60961914 -0.6862793 C-4.04505848 -0.9945832 -2.42499052 -0.81787503 0 0 Z " fill="#333331" transform="translate(104,146)"/>
<path d="M0 0 C-3.00440021 2.00293347 -4.70993945 2.49271626 -8.1875 3.125 C-9.53908203 3.37636719 -9.53908203 3.37636719 -10.91796875 3.6328125 C-11.60503906 3.75398438 -12.29210937 3.87515625 -13 4 C-13.33 5.65 -13.66 7.3 -14 9 C-16.475 8.01 -16.475 8.01 -19 7 C-18.67 5.68 -18.34 4.36 -18 3 C-15.93918639 2.49309416 -13.87626474 1.99475381 -11.8125 1.5 C-10.66394531 1.2215625 -9.51539062 0.943125 -8.33203125 0.65625 C-5.43181171 0.08504615 -2.93903615 -0.13283779 0 0 Z " fill="#333331" transform="translate(117,96)"/>
<path d="M0 0 C0.33 0.66 0.66 1.32 1 2 C2.65 1.67 4.3 1.34 6 1 C4.39966508 4.20066984 1.24030101 4.70013124 -1.96875 6 C-4.16560255 6.82709949 -4.16560255 6.82709949 -5 9 C-5.66 8.34 -6.32 7.68 -7 7 C-6.625 4.375 -6.625 4.375 -6 2 C-4.02 1.34 -2.04 0.68 0 0 Z " fill="#333331" transform="translate(176,147)"/>
<path d="M0 0 C0.66 0.99 1.32 1.98 2 3 C1.38125 3.433125 0.7625 3.86625 0.125 4.3125 C-2.2197245 5.99740483 -2.2197245 5.99740483 -4 9 C-7.125 9.6875 -7.125 9.6875 -10 10 C-8.84172638 6.52517915 -7.911812 5.94446638 -5 3.875 C-2.38851475 2.06989989 -2.38851475 2.06989989 0 0 Z " fill="#333331" transform="translate(63,220)"/>
<path d="M0 0 C2.97 0.495 2.97 0.495 6 1 C3.63055987 3.61885488 1.16266898 5.41866551 -2 7 C-2.99 6.67 -3.98 6.34 -5 6 C-4.34 6 -3.68 6 -3 6 C-3.33 5.01 -3.66 4.02 -4 3 C-3.01 2.67 -2.02 2.34 -1 2 C-0.67 1.34 -0.34 0.68 0 0 Z " fill="#333331" transform="translate(53,243)"/>
<path d="M0 0 C6.625 -0.25 6.625 -0.25 10 2 C9.01 2 8.02 2 7 2 C7 2.66 7 3.32 7 4 C5.68 4 4.36 4 3 4 C2.67 4.66 2.34 5.32 2 6 C0 3 0 3 0 0 Z " fill="#333331" transform="translate(108,256)"/>
<path d="M0 0 C0.66 0.99 1.32 1.98 2 3 C1.50628906 3.39832031 1.01257813 3.79664062 0.50390625 4.20703125 C-0.13675781 4.73683594 -0.77742187 5.26664062 -1.4375 5.8125 C-2.07558594 6.33457031 -2.71367187 6.85664062 -3.37109375 7.39453125 C-5.2548275 9.00834411 -5.2548275 9.00834411 -6 12 C-7.32 11.67 -8.64 11.34 -10 11 C-9.04882866 9.8274869 -8.08882991 8.66212985 -7.125 7.5 C-6.32449219 6.52546875 -6.32449219 6.52546875 -5.5078125 5.53125 C-5.01023438 5.0259375 -4.51265625 4.520625 -4 4 C-3.34 4 -2.68 4 -2 4 C-1.34 2.68 -0.68 1.36 0 0 Z " fill="#333331" transform="translate(199,116)"/>
<path d="M0 0 C1.23593891 3.70781672 0.5678132 4.67510253 -0.9375 8.1875 C-1.31777344 9.08855469 -1.69804687 9.98960937 -2.08984375 10.91796875 C-2.54037109 11.94857422 -2.54037109 11.94857422 -3 13 C-4.20628008 10.66785852 -5.1654738 8.50357861 -6 6 C-5.195625 5.7525 -4.39125 5.505 -3.5625 5.25 C-0.828919 4.27761141 -0.828919 4.27761141 -0.1875 1.875 C-0.125625 1.25625 -0.06375 0.6375 0 0 Z " fill="#333331" transform="translate(166,269)"/>
<path d="M0 0 C2.01822917 0.29296875 4.03645833 0.5859375 6.0546875 0.87890625 C8.08140667 1.1684297 8.08140667 1.1684297 10 0 C10 0.66 10 1.32 10 2 C11.65 2 13.3 2 15 2 C13 4 13 4 9.6875 4.25 C6.25021602 4.0169638 4.02079003 3.59924178 1 2 C0.67 1.34 0.34 0.68 0 0 Z " fill="#333331" transform="translate(154,59)"/>
<path d="M0 0 C0.66 0 1.32 0 2 0 C1.690625 0.556875 1.38125 1.11375 1.0625 1.6875 C-0.05761821 4.12540433 -0.56037364 6.36224186 -1 9 C-2.98 9.33 -4.96 9.66 -7 10 C-6.57847656 9.44570312 -6.15695313 8.89140625 -5.72265625 8.3203125 C-5.17480469 7.59585938 -4.62695312 6.87140625 -4.0625 6.125 C-3.51722656 5.40570313 -2.97195312 4.68640625 -2.41015625 3.9453125 C-0.96035376 2.05642921 -0.96035376 2.05642921 0 0 Z " fill="#333331" transform="translate(75,206)"/>
<path d="M0 0 C-3.75 3 -3.75 3 -6 3 C-6 3.66 -6 4.32 -6 5 C-6.66 5 -7.32 5 -8 5 C-8 6.65 -8 8.3 -8 10 C-8.33 10 -8.66 10 -9 10 C-9.36103152 3.6217765 -9.36103152 3.6217765 -7.875 1.0625 C-5.214973 -0.44484863 -2.99793795 -0.19986253 0 0 Z " fill="#333331" transform="translate(225,82)"/>
<path d="M0 0 C1.2065625 0.0309375 1.2065625 0.0309375 2.4375 0.0625 C2.7675 0.7225 3.0975 1.3825 3.4375 2.0625 C-1.3125 5.0625 -1.3125 5.0625 -3.5625 5.0625 C-4.5525 5.5575 -4.5525 5.5575 -5.5625 6.0625 C-3.26136364 0.07954545 -3.26136364 0.07954545 0 0 Z " fill="#333331" transform="translate(82.5625,199.9375)"/>
<path d="M0 0 C2 1.375 2 1.375 4 3 C4 3.66 4 4.32 4 5 C3.34 5 2.68 5 2 5 C2 5.66 2 6.32 2 7 C1.34 7 0.68 7 0 7 C-0.66 5.35 -1.32 3.7 -2 2 C-1.34 2 -0.68 2 0 2 C0 1.34 0 0.68 0 0 Z " fill="#333331" transform="translate(186,192)"/>
<path d="M0 0 C2.00720923 0.28674418 4.0085944 0.61866701 6 1 C3.41464321 2.72357119 1.96188386 3.44735018 -0.9375 4.1875 C-1.60652344 4.36667969 -2.27554688 4.54585937 -2.96484375 4.73046875 C-5.24680888 5.03268678 -6.82026659 4.68756692 -9 4 C-8.43410156 3.79503906 -7.86820312 3.59007812 -7.28515625 3.37890625 C-6.55167969 3.10949219 -5.81820312 2.84007812 -5.0625 2.5625 C-4.33160156 2.29566406 -3.60070312 2.02882812 -2.84765625 1.75390625 C-1.01694322 1.14613052 -1.01694322 1.14613052 0 0 Z " fill="#333331" transform="translate(78,163)"/>
<path d="M0 0 C0.7425 0.61875 1.485 1.2375 2.25 1.875 C4.48801188 3.60437281 6.43739987 4.86106661 9 6 C8.67 7.32 8.34 8.64 8 10 C6.66070495 8.71451591 5.32871357 7.42141845 4 6.125 C2.88625 5.04605469 2.88625 5.04605469 1.75 3.9453125 C0 2 0 2 0 0 Z " fill="#333331" transform="translate(139,44)"/>
<path d="M0 0 C0.66 0.33 1.32 0.66 2 1 C1.34 2.65 0.68 4.3 0 6 C-2.33333333 6 -4.66666667 6 -7 6 C-4.69 4.02 -2.38 2.04 0 0 Z " fill="#333331" transform="translate(38,240)"/>
<path d="M0 0 C3.36591866 1.44253657 5.51047079 3.33264727 8 6 C7.67 6.66 7.34 7.32 7 8 C6.566875 7.505 6.13375 7.01 5.6875 6.5 C4.00259517 4.66781808 4.00259517 4.66781808 1 5 C0.67 3.35 0.34 1.7 0 0 Z " fill="#333331" transform="translate(128,149)"/>
<path d="M0 0 C0.66 0 1.32 0 2 0 C1.3125 3.375 1.3125 3.375 0 7 C-2.625 8.4375 -2.625 8.4375 -5 9 C-3.50079488 5.88626628 -1.91847864 2.87771795 0 0 Z " fill="#333331" transform="translate(208,104)"/>
<path d="M0 0 C0.66 0.66 1.32 1.32 2 2 C1.8125 4 1.8125 4 1 6 C0.01 6.66 -0.98 7.32 -2 8 C-2.99 7.67 -3.98 7.34 -5 7 C-4.34 6.566875 -3.68 6.13375 -3 5.6875 C-2.01 4.8521875 -2.01 4.8521875 -1 4 C-1 3.01 -1 2.02 -1 1 C-0.67 0.67 -0.34 0.34 0 0 Z " fill="#333331" transform="translate(252,99)"/>
<path d="M0 0 C0.93423645 3.01031744 1.04449911 3.86650268 0 7 C-2.0625 7.6875 -2.0625 7.6875 -4 8 C-2.87548273 5.0280615 -1.77706209 2.66559313 0 0 Z " fill="#333331" transform="translate(95,179)"/>
<path d="M0 0 C0.66 0.66 1.32 1.32 2 2 C1.01 3.32 0.02 4.64 -1 6 C-1 5.34 -1 4.68 -1 4 C-2.32 4.33 -3.64 4.66 -5 5 C-3.35 3.35 -1.7 1.7 0 0 Z " fill="#333331" transform="translate(205,111)"/>
<path d="M0 0 C3.465 1.485 3.465 1.485 7 3 C6.01 3.33 5.02 3.66 4 4 C3.34 3.67 2.68 3.34 2 3 C2 3.66 2 4.32 2 5 C1.34 5 0.68 5 0 5 C0 3.35 0 1.7 0 0 Z " fill="#333331" transform="translate(247,219)"/>
<path d="M0 0 C0.66 0.99 1.32 1.98 2 3 C0.62308038 5.75383923 -1.36720042 6.51483101 -4 8 C-2.87548273 5.0280615 -1.77706209 2.66559313 0 0 Z " fill="#333331" transform="translate(86,192)"/>
<path d="M0 0 C0.33 0.66 0.66 1.32 1 2 C2.65 1.67 4.3 1.34 6 1 C5.67 1.66 5.34 2.32 5 3 C2.6859378 3.73075648 0.35171131 4.40138258 -2 5 C-1.34 3.35 -0.68 1.7 0 0 Z " fill="#333331" transform="translate(176,147)"/>
</svg>